<svg width="177" height="50" viewBox="0 0 177 50" fill="none" xmlns="http://www.w3.org/2000/svg">
<g id="Group 3708">
<path id="Vector" d="M49.268 1.11885C49.268 1.08733 49.2554 1.0571 49.2331 1.03481C49.2108 1.01252 49.1806 1 49.149 1H1.11896C1.08741 1 1.05715 1.01252 1.03484 1.03481C1.01253 1.0571 1 1.08733 1 1.11885V48.8811C1 48.9127 1.01253 48.9429 1.03484 48.9652C1.05715 48.9875 1.08741 49 1.11896 49H49.149C49.1806 49 49.2108 48.9875 49.2331 48.9652C49.2554 48.9429 49.268 48.9127 49.268 48.8811V1.11885Z" stroke="#F18087" stroke-width="0.914286"/>
<path id="Vector_2" d="M109.175 24.7466L109.198 34.7763C109.198 34.8394 109.223 34.8998 109.267 34.9444C109.312 34.989 109.373 35.014 109.436 35.014L113.073 35.0369C113.105 35.0375 113.137 35.0316 113.167 35.0194C113.197 35.0073 113.224 34.9892 113.247 34.9662C113.27 34.9433 113.289 34.9158 113.301 34.8856C113.314 34.8553 113.32 34.8228 113.32 34.79V24.774C113.32 24.6977 113.35 24.6244 113.404 24.5704C113.458 24.5164 113.532 24.486 113.608 24.486H117.721C117.798 24.486 117.871 24.4557 117.925 24.4017C117.979 24.3477 118.01 24.2744 118.01 24.198V21.5238C118.01 21.4583 117.983 21.3955 117.936 21.3492C117.889 21.3029 117.825 21.2769 117.758 21.2769L113.681 21.2906C113.614 21.291 113.549 21.268 113.497 21.2256C113.444 21.1832 113.408 21.1238 113.393 21.0575C112.757 18.0723 114.674 16.2575 117.529 17.6655C117.556 17.6793 117.586 17.6865 117.617 17.6866C117.647 17.6866 117.677 17.6795 117.705 17.6658C117.732 17.6521 117.756 17.6321 117.775 17.6075C117.794 17.5828 117.807 17.5542 117.813 17.5238L118.289 15.0689C118.303 14.9957 118.292 14.9197 118.258 14.8528C118.224 14.7858 118.169 14.7316 118.101 14.6986C116.692 14.0373 115.202 13.8148 113.631 14.0312C109.774 14.5615 109.024 17.5695 109.202 20.9295C109.204 20.9701 109.198 21.0107 109.184 21.0488C109.171 21.087 109.149 21.122 109.122 21.1518C109.095 21.1816 109.062 21.2056 109.026 21.2223C108.989 21.2391 108.95 21.2483 108.91 21.2495L107.418 21.3043C107.344 21.3067 107.275 21.3376 107.223 21.3905C107.172 21.4434 107.144 21.5141 107.144 21.5878V24.2438C107.144 24.2822 107.151 24.3202 107.166 24.3555C107.181 24.3908 107.204 24.4227 107.231 24.4492C107.259 24.4757 107.292 24.4963 107.328 24.5097C107.364 24.5231 107.403 24.529 107.441 24.5272L108.887 24.4678C108.924 24.4665 108.961 24.4728 108.996 24.4863C109.031 24.4998 109.063 24.5201 109.09 24.5461C109.117 24.5721 109.138 24.6033 109.153 24.6377C109.167 24.6722 109.175 24.7092 109.175 24.7466Z" stroke="#F18087" stroke-width="0.914286"/>
<path id="Vector_3" d="M61.7584 23.5441C61.7406 23.5684 61.7155 23.5864 61.6867 23.5955C61.6579 23.6045 61.627 23.6042 61.5985 23.5945C61.5699 23.5848 61.5451 23.5663 61.5278 23.5416C61.5105 23.5169 61.5016 23.4873 61.5022 23.4572L61.5068 14.3326C61.5068 14.295 61.4919 14.259 61.4653 14.2324C61.4387 14.2059 61.4026 14.1909 61.365 14.1909L57.0735 14.2229C57.0359 14.2229 56.9998 14.2378 56.9732 14.2644C56.9466 14.291 56.9316 14.327 56.9316 14.3646V34.8675C56.9316 34.9051 56.9466 34.9411 56.9732 34.9677C56.9998 34.9943 57.0359 35.0092 57.0735 35.0092L61.3741 35.0001C61.4117 35.0001 61.4478 34.9851 61.4744 34.9586C61.501 34.932 61.516 34.8959 61.516 34.8583L61.4473 25.9486C61.4467 25.9185 61.4556 25.8889 61.4729 25.8642C61.4902 25.8395 61.515 25.821 61.5436 25.8113C61.5721 25.8016 61.603 25.8013 61.6318 25.8104C61.6606 25.8195 61.6857 25.8375 61.7035 25.8618L68.3878 34.9726C68.4009 34.9909 68.418 35.0058 68.4379 35.0161C68.4578 35.0264 68.4798 35.0319 68.5022 35.0321L73.4892 35.0092C73.5151 35.009 73.5405 35.0017 73.5626 34.9881C73.5847 34.9744 73.6026 34.955 73.6144 34.9319C73.6262 34.9088 73.6314 34.8829 73.6295 34.857C73.6276 34.8312 73.6186 34.8063 73.6035 34.7852L65.78 24.4766C65.7614 24.4513 65.7517 24.4204 65.7525 24.389C65.7533 24.3575 65.7646 24.3273 65.7846 24.3029L73.48 14.4652C73.4962 14.4444 73.5062 14.4195 73.509 14.3934C73.5118 14.3672 73.5072 14.3407 73.4958 14.317C73.4844 14.2933 73.4666 14.2732 73.4444 14.259C73.4222 14.2448 73.3965 14.2371 73.3702 14.2366L68.5205 14.2183C68.4981 14.2185 68.4761 14.224 68.4562 14.2343C68.4363 14.2447 68.4192 14.2595 68.4061 14.2778L61.7584 23.5441Z" stroke="#F18087" stroke-width="0.914286"/>
<path id="Vector_4" d="M124.456 14.3591C124.456 14.3435 124.453 14.328 124.447 14.3136C124.441 14.2991 124.432 14.286 124.421 14.275C124.41 14.2639 124.397 14.2551 124.382 14.2491C124.368 14.2431 124.352 14.24 124.337 14.24L120.549 14.2334C120.533 14.2334 120.518 14.2364 120.503 14.2424C120.489 14.2483 120.475 14.257 120.464 14.2681C120.453 14.2791 120.445 14.2922 120.439 14.3066C120.433 14.321 120.429 14.3365 120.429 14.3521L120.394 34.8869C120.394 34.9025 120.397 34.918 120.403 34.9324C120.409 34.9468 120.417 34.9599 120.428 34.971C120.439 34.982 120.452 34.9908 120.467 34.9968C120.481 35.0028 120.497 35.0059 120.512 35.0059L124.301 35.0126C124.316 35.0126 124.332 35.0095 124.346 35.0036C124.361 34.9976 124.374 34.9889 124.385 34.9779C124.396 34.9669 124.405 34.9538 124.411 34.9394C124.417 34.9249 124.42 34.9095 124.42 34.8939L124.456 14.3591Z" stroke="#F18087" stroke-width="0.914286"/>
<path id="Vector_5" d="M172.057 33.8848L171.993 34.7031C171.989 34.7433 171.993 34.784 172.006 34.8224C172.019 34.8608 172.039 34.8961 172.066 34.9262C172.093 34.9563 172.127 34.9804 172.163 34.9971C172.2 35.0138 172.24 35.0226 172.281 35.0231L175.776 35.1008C175.805 35.1014 175.834 35.0961 175.862 35.0854C175.889 35.0746 175.914 35.0586 175.934 35.0381C175.955 35.0177 175.972 34.9933 175.983 34.9664C175.995 34.9395 176 34.9105 176 34.8813V14.4882C176 14.4118 175.97 14.3386 175.916 14.2845C175.862 14.2305 175.789 14.2002 175.712 14.2002H172.281C172.203 14.2002 172.129 14.231 172.074 14.2859C172.019 14.3408 171.988 14.4152 171.988 14.4928L172.015 22.4562C172.015 22.6848 171.927 22.7259 171.75 22.5796C169.408 20.6642 166.283 20.3991 163.803 22.2596C159.621 25.4002 160.161 33.2036 165.514 34.9819C167.744 35.7225 169.85 35.3172 171.832 33.7659C171.997 33.6379 172.072 33.6775 172.057 33.8848Z" stroke="#F18087" stroke-width="0.914286"/>
<path id="Vector_6" d="M84.0981 34.0309L84.0295 34.6663C84.025 34.7063 84.029 34.7469 84.0411 34.7853C84.0533 34.8237 84.0734 34.8591 84.1002 34.8893C84.1269 34.9194 84.1597 34.9437 84.1963 34.9604C84.233 34.9771 84.2728 34.9859 84.3131 34.9863L87.9001 35.0503C87.9335 35.0509 87.9667 35.0449 87.9978 35.0325C88.0288 35.0201 88.0571 35.0017 88.081 34.9783C88.1048 34.9549 88.1237 34.927 88.1367 34.8962C88.1496 34.8654 88.1563 34.8323 88.1563 34.7989V21.5143C88.1563 21.4537 88.1322 21.3956 88.0893 21.3527C88.0464 21.3098 87.9882 21.2857 87.9275 21.2857H84.304C84.2646 21.2854 84.2257 21.2935 84.1897 21.3095C84.1538 21.3255 84.1217 21.3491 84.0957 21.3785C84.0697 21.408 84.0503 21.4428 84.0388 21.4804C84.0274 21.518 84.0242 21.5576 84.0295 21.5966L84.1072 22.2092C84.1347 22.4316 84.0523 22.4865 83.8602 22.3737C80.1513 20.1764 77.1301 20.5574 74.7968 23.5166C70.2171 29.336 76.3844 38.9726 83.9105 33.9166C84.0539 33.8191 84.1164 33.8572 84.0981 34.0309Z" stroke="#F18087" stroke-width="0.914286"/>
<path id="Vector_7" d="M148.878 22.392L148.947 21.5965C148.95 21.5568 148.945 21.5169 148.932 21.4792C148.919 21.4415 148.899 21.407 148.872 21.3778C148.845 21.3486 148.813 21.3253 148.777 21.3095C148.741 21.2936 148.702 21.2855 148.663 21.2857H145.204C145.135 21.2857 145.069 21.3131 145.02 21.362C144.971 21.4109 144.943 21.4772 144.943 21.5463L144.98 34.6891C144.98 34.7652 145.01 34.8382 145.062 34.8928C145.115 34.9474 145.188 34.9793 145.264 34.9817L148.631 35.0548C148.665 35.0554 148.699 35.0494 148.73 35.037C148.762 35.0247 148.791 35.0062 148.815 34.9828C148.839 34.9594 148.859 34.9315 148.872 34.9007C148.885 34.8699 148.892 34.8368 148.892 34.8034V26.2731C148.892 26.1247 148.942 25.9799 149.034 25.8617C150.191 24.3623 152.63 23.6445 154.016 25.272C155.247 26.712 154.725 32.7828 154.739 34.8354C154.74 34.8855 154.76 34.9332 154.795 34.9682C154.83 35.0032 154.877 35.0228 154.926 35.0228L158.486 35.0365C158.54 35.0366 158.591 35.0155 158.63 34.9779C158.668 34.9403 158.691 34.8892 158.692 34.8354C158.802 29.016 160.275 19.7725 152.131 21.1257C151.005 21.3085 150.118 22.0217 149.098 22.5383C148.933 22.6236 148.86 22.5748 148.878 22.392Z" stroke="#F18087" stroke-width="0.914286"/>
<path id="Vector_8" d="M137.958 34.1174L137.907 34.7482C137.905 34.7776 137.908 34.8071 137.918 34.835C137.927 34.8629 137.942 34.8886 137.962 34.9104C137.982 34.9323 138.006 34.9499 138.032 34.9621C138.059 34.9743 138.088 34.9808 138.118 34.9814L141.663 35.0454C141.696 35.046 141.729 35.0399 141.759 35.0276C141.79 35.0152 141.818 34.9968 141.841 34.9734C141.864 34.95 141.883 34.922 141.896 34.8912C141.909 34.8604 141.915 34.8273 141.915 34.7939V21.5414C141.915 21.5044 141.908 21.4677 141.893 21.4336C141.879 21.3994 141.858 21.3685 141.832 21.3425C141.805 21.3166 141.774 21.2961 141.74 21.2824C141.705 21.2687 141.668 21.2619 141.631 21.2625L138.177 21.2945C138.14 21.295 138.103 21.3032 138.069 21.3186C138.035 21.334 138.005 21.3563 137.979 21.3841C137.954 21.4119 137.935 21.4446 137.922 21.4803C137.91 21.516 137.905 21.5539 137.907 21.5916L137.953 22.2911C137.971 22.541 137.88 22.5913 137.678 22.4419C130.308 16.9882 123.674 27.3974 129.073 33.3311C130.729 35.1505 133.991 36.0465 136.439 34.6431C136.863 34.4023 137.293 34.1753 137.729 33.9619C137.893 33.8796 137.97 33.9315 137.958 34.1174Z" stroke="#F18087" stroke-width="0.914286"/>
<path id="Vector_9" d="M100.858 33.7655L100.853 34.7804C100.853 34.8434 100.878 34.9039 100.923 34.9485C100.967 34.993 101.028 35.0181 101.091 35.0181L104.609 35.0455C104.643 35.0461 104.677 35.0399 104.709 35.0274C104.74 35.0148 104.769 34.996 104.794 34.9722C104.818 34.9483 104.837 34.9199 104.85 34.8885C104.863 34.8572 104.87 34.8235 104.87 34.7895L104.724 21.5141C104.724 21.451 104.698 21.3906 104.653 21.346C104.607 21.3014 104.546 21.2764 104.481 21.2764L101.082 21.2901C101.021 21.2901 100.963 21.3142 100.92 21.357C100.877 21.3999 100.853 21.458 100.853 21.5187V29.9712C100.853 30.1141 100.81 30.2528 100.73 30.3689C99.6454 31.9644 96.8453 32.4947 95.6375 30.8352C94.5761 29.3724 94.9878 23.4707 95.0244 21.5278C95.025 21.4962 95.0193 21.4648 95.0077 21.4354C94.996 21.4061 94.9785 21.3793 94.9564 21.3567C94.9342 21.3342 94.9078 21.3163 94.8786 21.304C94.8495 21.2918 94.8181 21.2855 94.7865 21.2855H91.2819C91.2535 21.2855 91.2254 21.2911 91.1992 21.3021C91.1731 21.313 91.1495 21.329 91.1298 21.349C91.1101 21.3691 91.0948 21.3929 91.0848 21.4189C91.0748 21.4449 91.0703 21.4726 91.0715 21.5004C91.1508 24.4383 91.2026 27.3762 91.227 30.3141C91.2682 35.7221 97.1839 36.6044 100.666 33.6787C100.794 33.5689 100.858 33.5979 100.858 33.7655Z" stroke="#F18087" stroke-width="0.914286"/>
<path id="Vector_10" d="M46.6374 3.63808C46.6374 3.60534 46.6244 3.57395 46.6012 3.5508C46.578 3.52765 46.5466 3.51465 46.5139 3.51465H3.75439C3.72163 3.51465 3.69021 3.52765 3.66704 3.5508C3.64387 3.57395 3.63086 3.60534 3.63086 3.63808V46.3626C3.63086 46.3789 3.63406 46.3949 3.64026 46.4099C3.64647 46.4249 3.65557 46.4385 3.66704 46.4499C3.67851 46.4614 3.69213 46.4705 3.70711 46.4767C3.7221 46.4829 3.73817 46.4861 3.75439 46.4861H46.5139C46.5301 46.4861 46.5461 46.4829 46.5611 46.4767C46.5761 46.4705 46.5897 46.4614 46.6012 46.4499C46.6127 46.4385 46.6218 46.4249 46.628 46.4099C46.6342 46.3949 46.6374 46.3789 46.6374 46.3626V3.63808Z" stroke="#F18087" stroke-width="0.914286"/>
<path id="Vector_11" d="M23.8757 9.0686C23.8757 9.0201 23.8564 8.97359 23.8221 8.9393C23.7878 8.90501 23.7412 8.88574 23.6927 8.88574H9.29922C9.25068 8.88574 9.20413 8.90501 9.16981 8.9393C9.13549 8.97359 9.11621 9.0201 9.11621 9.0686V23.56C9.11621 23.6085 9.13549 23.655 9.16981 23.6893C9.20413 23.7236 9.25068 23.7429 9.29922 23.7429H23.6927C23.7412 23.7429 23.7878 23.7236 23.8221 23.6893C23.8564 23.655 23.8757 23.6085 23.8757 23.56V9.0686Z" stroke="#F18087" stroke-width="0.914286"/>
<path id="Vector_12" d="M26.374 23.345C26.3744 23.3719 26.3827 23.398 26.3978 23.4202C26.4129 23.4424 26.4342 23.4597 26.459 23.4699C26.4838 23.4801 26.5111 23.4829 26.5375 23.4777C26.5639 23.4726 26.5882 23.4598 26.6074 23.441L40.9779 9.13704C40.9984 9.11814 41.0125 9.09348 41.0186 9.06634C41.0247 9.03921 41.0223 9.01087 41.0119 8.98509C41.0015 8.9593 40.9835 8.93729 40.9603 8.92197C40.937 8.90666 40.9097 8.89876 40.8819 8.89932L26.5387 8.87646C26.5023 8.87646 26.4674 8.89092 26.4417 8.91664C26.4159 8.94236 26.4015 8.97724 26.4015 9.01361L26.374 23.345Z" stroke="#F18087" stroke-width="0.914286"/>
<path id="Vector_13" d="M23.8627 26.3628C23.8627 26.3472 23.8596 26.3317 23.8536 26.3173C23.8476 26.3029 23.8388 26.2898 23.8277 26.2788C23.8167 26.2678 23.8035 26.259 23.7891 26.2531C23.7746 26.2472 23.7592 26.2441 23.7436 26.2441L9.20373 26.2695C9.18811 26.2695 9.17265 26.2726 9.15822 26.2786C9.1438 26.2846 9.1307 26.2934 9.11967 26.3045C9.10865 26.3155 9.09991 26.3286 9.09395 26.3431C9.08799 26.3575 9.08494 26.3729 9.08496 26.3885L9.11049 41.008C9.11052 41.0236 9.11363 41.039 9.11963 41.0534C9.12564 41.0679 9.13443 41.0809 9.14549 41.092C9.15656 41.103 9.16969 41.1117 9.18414 41.1176C9.19858 41.1236 9.21406 41.1266 9.22968 41.1266L23.7695 41.1012C23.7851 41.1012 23.8006 41.0981 23.815 41.0921C23.8294 41.0861 23.8425 41.0773 23.8536 41.0663C23.8646 41.0552 23.8733 41.0421 23.8793 41.0277C23.8852 41.0133 23.8883 40.9978 23.8883 40.9822L23.8627 26.3628Z" stroke="#F18087" stroke-width="0.914286"/>
<path id="Vector_14" d="M40.9782 40.8629C36.4168 35.9166 31.3658 31.3177 26.6351 26.5223C26.4734 26.3577 26.3926 26.3897 26.3926 26.6183V40.7257C26.3926 40.7985 26.421 40.8682 26.4716 40.9197C26.5223 40.9711 26.5909 41 26.6625 41L40.9141 41.0137C41.0484 41.0137 41.0697 40.9634 40.9782 40.8629Z" stroke="#F18087" stroke-width="0.914286"/>
<path id="Vector_15" d="M171.832 25.6558C166.067 20.394 161.931 31.5072 168.794 31.9049C169.986 31.975 171.005 31.5346 171.85 30.5838C171.944 30.4776 171.996 30.341 171.996 30.1998V26.0306C171.997 25.9601 171.982 25.8904 171.954 25.8258C171.925 25.7613 171.884 25.7034 171.832 25.6558Z" stroke="#F18087" stroke-width="0.914286"/>
<path id="Vector_16" d="M83.5586 25.1349C77.4233 21.3543 74.9893 31.5166 80.7678 31.8915C81.8201 31.9585 82.8251 31.6553 83.7828 30.9818C83.8547 30.9327 83.9135 30.8666 83.9541 30.7894C83.9948 30.7121 84.0161 30.626 84.0161 30.5384L84.039 25.9989C84.0389 25.8256 83.9947 25.6554 83.9106 25.5042C83.8266 25.353 83.7054 25.2259 83.5586 25.1349Z" stroke="#F18087" stroke-width="0.914286"/>
<path id="Vector_17" d="M132.248 25.7928C131.418 26.6736 131.083 27.5391 131.241 28.3894C131.793 31.3578 133.579 32.432 136.599 31.6122C137.489 31.3715 137.932 30.7909 137.926 29.8705L137.907 25.9071C137.907 25.838 137.893 25.7696 137.864 25.7066C137.836 25.6436 137.794 25.5872 137.743 25.5414C135.848 23.8256 134.017 23.9094 132.248 25.7928Z" stroke="#F18087" stroke-width="0.914286"/>
<path id="Vector_18" d="M49.268 48.8811C49.268 48.9127 49.2554 48.9429 49.2331 48.9652C49.2108 48.9875 49.1806 49 49.149 49H1.11896C1.08741 49 1.05715 48.9875 1.03484 48.9652C1.01253 48.9429 1 48.9127 1 48.8811V1.11885C1 1.08733 1.01253 1.0571 1.03484 1.03481C1.05715 1.01252 1.08741 1 1.11896 1H49.149C49.1806 1 49.2108 1.01252 49.2331 1.03481C49.2554 1.0571 49.268 1.08733 49.268 1.11885V48.8811ZM46.6372 3.63772C46.6372 3.60498 46.6242 3.57359 46.6011 3.55044C46.5779 3.52729 46.5465 3.51429 46.5137 3.51429H3.75425C3.72148 3.51429 3.69006 3.52729 3.6669 3.55044C3.64373 3.57359 3.63072 3.60498 3.63072 3.63772V46.3623C3.63072 46.3785 3.63391 46.3945 3.64012 46.4095C3.64633 46.4245 3.65543 46.4381 3.6669 46.4496C3.67837 46.461 3.69199 46.4701 3.70697 46.4763C3.72196 46.4825 3.73802 46.4857 3.75425 46.4857H46.5137C46.5299 46.4857 46.546 46.4825 46.561 46.4763C46.576 46.4701 46.5896 46.461 46.6011 46.4496C46.6125 46.4381 46.6216 46.4245 46.6278 46.4095C46.634 46.3945 46.6372 46.3785 46.6372 46.3623V3.63772Z" fill="#E3000E"/>
<path id="Vector_19" d="M23.6927 8.88574H9.29922C9.19815 8.88574 9.11621 8.96761 9.11621 9.0686V23.56C9.11621 23.661 9.19815 23.7429 9.29922 23.7429H23.6927C23.7937 23.7429 23.8757 23.661 23.8757 23.56V9.0686C23.8757 8.96761 23.7937 8.88574 23.6927 8.88574Z" fill="#E3000E"/>
<path id="Vector_20" d="M26.374 23.345L26.4015 9.01361C26.4015 8.97724 26.4159 8.94236 26.4417 8.91664C26.4674 8.89092 26.5023 8.87646 26.5387 8.87646L40.8819 8.89932C40.9097 8.89876 40.937 8.90666 40.9603 8.92197C40.9835 8.93729 41.0015 8.9593 41.0119 8.98509C41.0223 9.01087 41.0247 9.03921 41.0186 9.06634C41.0125 9.09348 40.9984 9.11814 40.9779 9.13704L26.6074 23.441C26.5882 23.4598 26.5639 23.4726 26.5375 23.4777C26.5111 23.4829 26.4838 23.4801 26.459 23.4699C26.4342 23.4597 26.4129 23.4424 26.3978 23.4202C26.3827 23.398 26.3744 23.3719 26.374 23.345Z" fill="#E3000E"/>
<path id="Vector_21" d="M108.887 24.4678L107.441 24.5272C107.403 24.529 107.364 24.5231 107.328 24.5097C107.292 24.4963 107.259 24.4757 107.231 24.4492C107.204 24.4227 107.181 24.3908 107.166 24.3555C107.151 24.3202 107.144 24.2822 107.144 24.2438V21.5878C107.144 21.5141 107.172 21.4434 107.223 21.3905C107.275 21.3376 107.344 21.3067 107.418 21.3043L108.91 21.2495C108.95 21.2483 108.989 21.2391 109.026 21.2223C109.062 21.2056 109.095 21.1816 109.122 21.1518C109.149 21.122 109.171 21.087 109.184 21.0488C109.198 21.0107 109.204 20.9701 109.202 20.9295C109.024 17.5695 109.774 14.5615 113.631 14.0312C115.202 13.8148 116.692 14.0373 118.101 14.6986C118.169 14.7316 118.224 14.7858 118.258 14.8528C118.292 14.9197 118.303 14.9957 118.289 15.0689L117.813 17.5238C117.807 17.5542 117.794 17.5828 117.775 17.6075C117.756 17.6321 117.732 17.6521 117.705 17.6658C117.677 17.6795 117.647 17.6866 117.617 17.6866C117.586 17.6865 117.556 17.6793 117.529 17.6655C114.674 16.2575 112.757 18.0723 113.393 21.0575C113.408 21.1238 113.444 21.1832 113.497 21.2256C113.549 21.268 113.614 21.291 113.681 21.2906L117.758 21.2769C117.825 21.2769 117.889 21.3029 117.936 21.3492C117.983 21.3955 118.01 21.4583 118.01 21.5238V24.198C118.01 24.2744 117.979 24.3477 117.925 24.4017C117.871 24.4557 117.798 24.486 117.721 24.486H113.608C113.532 24.486 113.458 24.5164 113.404 24.5704C113.35 24.6244 113.32 24.6977 113.32 24.774V34.79C113.32 34.8228 113.314 34.8553 113.301 34.8856C113.289 34.9158 113.27 34.9433 113.247 34.9662C113.224 34.9892 113.197 35.0073 113.167 35.0194C113.137 35.0316 113.105 35.0375 113.073 35.0369L109.436 35.014C109.373 35.014 109.312 34.989 109.267 34.9444C109.223 34.8998 109.198 34.8394 109.198 34.7763L109.175 24.7466C109.175 24.7092 109.167 24.6722 109.153 24.6377C109.138 24.6033 109.117 24.5721 109.09 24.5461C109.063 24.5201 109.031 24.4998 108.996 24.4863C108.961 24.4728 108.924 24.4665 108.887 24.4678Z" fill="#E3000E"/>
<path id="Vector_22" d="M61.7584 23.5436L68.4061 14.2773C68.4192 14.2591 68.4363 14.2442 68.4562 14.2338C68.4761 14.2235 68.4981 14.218 68.5205 14.2179L73.3702 14.2361C73.3965 14.2366 73.4222 14.2443 73.4444 14.2585C73.4666 14.2727 73.4844 14.2928 73.4958 14.3165C73.5072 14.3402 73.5118 14.3667 73.509 14.3929C73.5062 14.419 73.4962 14.4439 73.48 14.4647L65.7846 24.3024C65.7646 24.3268 65.7533 24.3571 65.7525 24.3885C65.7517 24.42 65.7614 24.4508 65.78 24.4761L73.6035 34.7847C73.6186 34.8058 73.6276 34.8307 73.6295 34.8565C73.6314 34.8824 73.6262 34.9083 73.6144 34.9314C73.6026 34.9545 73.5847 34.9739 73.5626 34.9876C73.5405 35.0012 73.5151 35.0085 73.4892 35.0087L68.5022 35.0316C68.4798 35.0314 68.4578 35.0259 68.4379 35.0156C68.418 35.0053 68.4009 34.9904 68.3878 34.9721L61.7035 25.8613C61.6857 25.837 61.6606 25.819 61.6318 25.8099C61.603 25.8008 61.5721 25.8012 61.5436 25.8108C61.515 25.8205 61.4902 25.8391 61.4729 25.8637C61.4556 25.8884 61.4467 25.918 61.4473 25.9481L61.516 34.8579C61.516 34.8954 61.501 34.9315 61.4744 34.9581C61.4478 34.9846 61.4117 34.9996 61.3741 34.9996L57.0735 35.0087C57.0359 35.0087 56.9998 34.9938 56.9732 34.9672C56.9466 34.9406 56.9316 34.9046 56.9316 34.867V14.3641C56.9316 14.3266 56.9466 14.2905 56.9732 14.2639C56.9998 14.2374 57.0359 14.2224 57.0735 14.2224L61.365 14.1904C61.4026 14.1904 61.4387 14.2054 61.4653 14.2319C61.4919 14.2585 61.5068 14.2946 61.5068 14.3321L61.5022 23.4567C61.5016 23.4869 61.5105 23.5164 61.5278 23.5411C61.5451 23.5658 61.5699 23.5843 61.5985 23.594C61.627 23.6037 61.6579 23.604 61.6867 23.595C61.7155 23.5859 61.7406 23.5679 61.7584 23.5436Z" fill="#E3000E"/>
<path id="Vector_23" d="M124.337 14.2402L120.549 14.2336C120.483 14.2335 120.43 14.2866 120.429 14.3523L120.394 34.8871C120.393 34.9527 120.447 35.006 120.512 35.0061L124.301 35.0128C124.366 35.0129 124.42 34.9597 124.42 34.8941L124.456 14.3593C124.456 14.2936 124.403 14.2403 124.337 14.2402Z" fill="#E3000E"/>
<path id="Vector_24" d="M171.832 33.7659C169.85 35.3172 167.744 35.7225 165.514 34.9819C160.161 33.2036 159.621 25.4002 163.803 22.2596C166.283 20.3991 169.408 20.6642 171.75 22.5796C171.927 22.7259 172.015 22.6848 172.015 22.4562L171.988 14.4928C171.988 14.4152 172.019 14.3408 172.074 14.2859C172.129 14.231 172.203 14.2002 172.281 14.2002H175.712C175.789 14.2002 175.862 14.2305 175.916 14.2845C175.97 14.3386 176 14.4118 176 14.4882V34.8813C176 34.9105 175.995 34.9395 175.983 34.9664C175.972 34.9933 175.955 35.0177 175.934 35.0381C175.914 35.0586 175.889 35.0746 175.862 35.0854C175.834 35.0961 175.805 35.1014 175.776 35.1008L172.281 35.0231C172.24 35.0226 172.2 35.0138 172.163 34.9971C172.127 34.9804 172.093 34.9563 172.066 34.9262C172.039 34.8961 172.019 34.8608 172.006 34.8224C171.993 34.784 171.989 34.7433 171.993 34.7031L172.057 33.8848C172.072 33.6775 171.997 33.6379 171.832 33.7659ZM171.832 25.6562C166.068 20.3945 161.932 31.5076 168.794 31.9053C169.987 31.9754 171.006 31.5351 171.851 30.5842C171.945 30.478 171.997 30.3414 171.997 30.2002V26.0311C171.997 25.9606 171.983 25.8908 171.954 25.8263C171.926 25.7618 171.884 25.7038 171.832 25.6562Z" fill="#E3000E"/>
<path id="Vector_25" d="M23.7438 26.2445L9.20391 26.2698C9.13822 26.2699 9.08505 26.3232 9.08517 26.3889L9.11071 41.0083C9.11082 41.0739 9.16417 41.127 9.22987 41.1269L23.7697 41.1016C23.8354 41.1015 23.8886 41.0482 23.8885 40.9825L23.8629 26.3631C23.8628 26.2975 23.8095 26.2443 23.7438 26.2445Z" fill="#E3000E"/>
<path id="Vector_26" d="M26.6351 26.5223C31.3658 31.3177 36.4168 35.9166 40.9782 40.8629C41.0697 40.9634 41.0484 41.0137 40.9141 41.0137L26.6625 41C26.5909 41 26.5223 40.9711 26.4716 40.9197C26.421 40.8682 26.3926 40.7985 26.3926 40.7257V26.6183C26.3926 26.3897 26.4734 26.3577 26.6351 26.5223Z" fill="#E3000E"/>
<path id="Vector_27" d="M83.9105 33.9166C76.3844 38.9726 70.2171 29.336 74.7968 23.5166C77.1301 20.5574 80.1513 20.1764 83.8602 22.3737C84.0523 22.4865 84.1347 22.4316 84.1072 22.2092L84.0295 21.5966C84.0242 21.5576 84.0274 21.518 84.0388 21.4804C84.0503 21.4428 84.0697 21.408 84.0957 21.3785C84.1217 21.3491 84.1538 21.3255 84.1897 21.3095C84.2257 21.2935 84.2646 21.2854 84.304 21.2857H87.9275C87.9882 21.2857 88.0464 21.3098 88.0893 21.3527C88.1322 21.3956 88.1563 21.4537 88.1563 21.5143V34.7989C88.1563 34.8323 88.1496 34.8654 88.1367 34.8962C88.1237 34.927 88.1048 34.9549 88.081 34.9783C88.0571 35.0017 88.0288 35.0201 87.9978 35.0325C87.9667 35.0449 87.9335 35.0509 87.9001 35.0503L84.3131 34.9863C84.2728 34.9859 84.233 34.9771 84.1963 34.9604C84.1597 34.9437 84.1269 34.9194 84.1002 34.8893C84.0734 34.8591 84.0533 34.8237 84.0411 34.7853C84.029 34.7469 84.025 34.7063 84.0295 34.6663L84.0981 34.0309C84.1164 33.8572 84.0539 33.8191 83.9105 33.9166ZM83.5582 25.1349C77.4229 21.3543 74.989 31.5166 80.7674 31.8915C81.8197 31.9585 82.8247 31.6553 83.7824 30.9817C83.8543 30.9326 83.9131 30.8666 83.9537 30.7893C83.9944 30.7121 84.0157 30.6259 84.0157 30.5383L84.0386 25.9989C84.0385 25.8256 83.9943 25.6553 83.9102 25.5042C83.8262 25.353 83.705 25.2259 83.5582 25.1349Z" fill="#E3000E"/>
<path id="Vector_28" d="M149.098 22.5383C150.118 22.0217 151.005 21.3085 152.131 21.1257C160.275 19.7725 158.802 29.016 158.692 34.8354C158.691 34.8892 158.668 34.9403 158.63 34.9779C158.591 35.0155 158.54 35.0366 158.486 35.0365L154.926 35.0228C154.877 35.0228 154.83 35.0032 154.795 34.9682C154.76 34.9332 154.74 34.8855 154.739 34.8354C154.725 32.7828 155.247 26.712 154.016 25.272C152.63 23.6445 150.191 24.3623 149.034 25.8617C148.942 25.9799 148.892 26.1247 148.892 26.2731V34.8034C148.892 34.8368 148.885 34.8699 148.872 34.9007C148.859 34.9315 148.839 34.9594 148.815 34.9828C148.791 35.0062 148.762 35.0247 148.73 35.037C148.699 35.0494 148.665 35.0554 148.631 35.0548L145.264 34.9817C145.188 34.9793 145.115 34.9474 145.062 34.8928C145.01 34.8382 144.98 34.7652 144.98 34.6891L144.943 21.5463C144.943 21.4772 144.971 21.4109 145.02 21.362C145.069 21.3131 145.135 21.2857 145.204 21.2857H148.663C148.702 21.2855 148.741 21.2936 148.777 21.3095C148.813 21.3253 148.845 21.3486 148.872 21.3778C148.899 21.407 148.919 21.4415 148.932 21.4792C148.945 21.5169 148.95 21.5568 148.947 21.5965L148.878 22.392C148.86 22.5748 148.933 22.6236 149.098 22.5383Z" fill="#E3000E"/>
<path id="Vector_29" d="M137.729 33.9619C137.293 34.1753 136.863 34.4023 136.439 34.6431C133.991 36.0465 130.729 35.1505 129.073 33.3311C123.674 27.3974 130.308 16.9882 137.678 22.4419C137.88 22.5913 137.971 22.541 137.953 22.2911L137.907 21.5916C137.905 21.5539 137.91 21.516 137.922 21.4803C137.935 21.4446 137.954 21.4119 137.979 21.3841C138.005 21.3563 138.035 21.334 138.069 21.3186C138.103 21.3032 138.14 21.295 138.177 21.2945L141.631 21.2625C141.668 21.2619 141.705 21.2687 141.74 21.2824C141.774 21.2961 141.805 21.3166 141.832 21.3425C141.858 21.3685 141.879 21.3994 141.893 21.4336C141.908 21.4677 141.915 21.5044 141.915 21.5414V34.7939C141.915 34.8273 141.909 34.8604 141.896 34.8912C141.883 34.922 141.864 34.95 141.841 34.9734C141.818 34.9968 141.79 35.0152 141.759 35.0276C141.729 35.0399 141.696 35.046 141.663 35.0454L138.118 34.9814C138.088 34.9808 138.059 34.9743 138.032 34.9621C138.006 34.9499 137.982 34.9323 137.962 34.9104C137.942 34.8886 137.927 34.8629 137.918 34.835C137.908 34.8071 137.905 34.7776 137.907 34.7482L137.958 34.1174C137.97 33.9315 137.893 33.8796 137.729 33.9619ZM132.248 25.7928C131.418 26.6736 131.083 27.5391 131.241 28.3894C131.793 31.3577 133.579 32.432 136.599 31.6122C137.489 31.3715 137.932 30.7909 137.926 29.8705L137.907 25.9071C137.907 25.838 137.892 25.7696 137.864 25.7066C137.836 25.6435 137.794 25.5872 137.743 25.5414C135.848 23.8256 134.017 23.9094 132.248 25.7928Z" fill="#E3000E"/>
<path id="Vector_30" d="M100.666 33.6787C97.1839 36.6044 91.2682 35.7221 91.227 30.3141C91.2026 27.3762 91.1508 24.4383 91.0715 21.5004C91.0703 21.4726 91.0748 21.4449 91.0848 21.4189C91.0948 21.3929 91.1101 21.3691 91.1298 21.349C91.1495 21.329 91.1731 21.313 91.1992 21.3021C91.2254 21.2911 91.2535 21.2855 91.2819 21.2855H94.7865C94.8181 21.2855 94.8495 21.2918 94.8786 21.304C94.9078 21.3163 94.9342 21.3342 94.9564 21.3567C94.9785 21.3793 94.996 21.4061 95.0077 21.4354C95.0193 21.4648 95.025 21.4962 95.0244 21.5278C94.9878 23.4707 94.5761 29.3724 95.6375 30.8352C96.8453 32.4947 99.6454 31.9644 100.73 30.3689C100.81 30.2528 100.853 30.1141 100.853 29.9712V21.5187C100.853 21.458 100.877 21.3999 100.92 21.357C100.963 21.3142 101.021 21.2901 101.082 21.2901L104.481 21.2764C104.546 21.2764 104.607 21.3014 104.653 21.346C104.698 21.3906 104.724 21.451 104.724 21.5141L104.87 34.7895C104.87 34.8235 104.863 34.8572 104.85 34.8885C104.837 34.9199 104.818 34.9483 104.794 34.9722C104.769 34.996 104.74 35.0148 104.709 35.0274C104.677 35.0399 104.643 35.0461 104.609 35.0455L101.091 35.0181C101.028 35.0181 100.967 34.993 100.923 34.9485C100.878 34.9039 100.853 34.8434 100.853 34.7804L100.858 33.7655C100.858 33.5979 100.794 33.5689 100.666 33.6787Z" fill="#E3000E"/>
<path id="Vector_31" d="M83.5586 25.1349C83.7054 25.2259 83.8266 25.353 83.9106 25.5042C83.9947 25.6554 84.0389 25.8256 84.039 25.9989L84.0161 30.5384C84.0161 30.626 83.9948 30.7121 83.9541 30.7894C83.9135 30.8666 83.8547 30.9327 83.7828 30.9818C82.8251 31.6553 81.8201 31.9585 80.7678 31.8915C74.9893 31.5166 77.4233 21.3543 83.5586 25.1349Z" fill="white"/>
<path id="Vector_32" d="M132.248 25.7928C134.017 23.9094 135.848 23.8256 137.743 25.5414C137.794 25.5872 137.836 25.6436 137.864 25.7066C137.893 25.7696 137.907 25.838 137.907 25.9071L137.926 29.8705C137.932 30.7909 137.489 31.3715 136.599 31.6122C133.579 32.432 131.793 31.3578 131.241 28.3894C131.083 27.5391 131.418 26.6736 132.248 25.7928Z" fill="white"/>
<path id="Vector_33" d="M168.794 31.9049C161.931 31.5072 166.067 20.394 171.832 25.6558C171.884 25.7034 171.925 25.7613 171.954 25.8258C171.982 25.8904 171.997 25.9601 171.996 26.0306V30.1998C171.996 30.341 171.944 30.4776 171.85 30.5838C171.005 31.5346 169.986 31.975 168.794 31.9049Z" fill="white"/>
</g>
</svg>
