<svg width="26" height="26" viewBox="0 0 26 26" fill="none" xmlns="http://www.w3.org/2000/svg">
<g id="Group 3735">
<path id="bg" d="M24.1422 12.9993C24.1422 19.1533 19.1533 24.1422 12.9993 24.1422C10.652 24.1422 8.47427 23.4164 6.6782 22.177L2.86943 23.1292L3.86751 19.3864C2.60016 17.5778 1.85645 15.3754 1.85645 12.9993C1.85645 6.84527 6.84527 1.85645 12.9993 1.85645C19.1533 1.85645 24.1422 6.84527 24.1422 12.9993Z" fill="url(#paint0_linear_77_12100)"/>
<path id="border" fill-rule="evenodd" clip-rule="evenodd" d="M13 26C20.1797 26 26 20.1797 26 13C26 5.8203 20.1797 0 13 0C5.8203 0 0 5.8203 0 13C0 15.3315 0.613783 17.5197 1.68858 19.4118L0 26L6.79237 24.425C8.63699 25.4293 10.7519 26 13 26ZM13 24C19.0751 24 24 19.0751 24 13C24 6.92487 19.0751 2 13 2C6.92487 2 2 6.92487 2 13C2 15.3456 2.73418 17.5198 3.98528 19.3052L3 23L6.75993 22.06C8.53298 23.2835 10.6828 24 13 24Z" fill="white"/>
<path id="phone" d="M9.75002 6.96261C9.44093 6.34179 8.96678 6.39675 8.48777 6.39675C7.63171 6.39675 6.29687 7.42216 6.29688 9.33053C6.29688 10.8945 6.98606 12.6066 9.30839 15.1677C11.5496 17.6393 14.4944 18.9179 16.9392 18.8744C19.3839 18.8308 19.8869 16.7271 19.8869 16.0166C19.8869 15.7017 19.6915 15.5446 19.5569 15.5019C18.7238 15.1021 17.1872 14.3571 16.8376 14.2171C16.488 14.0771 16.3055 14.2664 16.192 14.3694C15.8749 14.6716 15.2464 15.562 15.0313 15.7623C14.8161 15.9626 14.4953 15.8612 14.3618 15.7855C13.8705 15.5884 12.5384 14.9959 11.4766 13.9666C10.1635 12.6937 10.0864 12.2557 9.83905 11.8659C9.64113 11.554 9.78637 11.3626 9.85884 11.279C10.1418 10.9526 10.5324 10.4486 10.7076 10.1981C10.8828 9.94764 10.7437 9.56738 10.6603 9.33053C10.3014 8.31194 9.99729 7.45927 9.75002 6.96261Z" fill="white"/>
</g>
<defs>
<linearGradient id="paint0_linear_77_12100" x1="22.7493" y1="4.64216" x2="1.85644" y2="24.1422" gradientUnits="userSpaceOnUse">
<stop stop-color="#5BD066"/>
<stop offset="1" stop-color="#27B43E"/>
</linearGradient>
</defs>
</svg>
