<svg width="340" height="71" viewBox="0 0 340 71" fill="none" xmlns="http://www.w3.org/2000/svg">
<path d="M99.587 27.053C100.856 27.0389 102.121 27.1973 103.348 27.5239V24.5976L100.631 24.2325V19.948L110.14 18.5898L110.348 18.7997V47.7434L112.335 47.9533V52.236L105.394 53.282L104.559 50.4598C103.356 52.4 101.208 53.4901 98.1318 53.4901C92.0711 53.4901 88.7285 49.2056 88.7285 42.3617V38.2395C88.7197 31.4433 92.6373 27.053 99.587 27.053ZM99.6382 48.2655C101.578 48.2655 102.99 47.2213 103.342 45.7061V32.6956C102.44 32.2272 101.434 31.9937 100.418 32.0166C97.4915 32.0166 95.9234 33.6887 95.9234 36.2499V44.0339C95.9287 46.8561 97.3927 48.2655 99.6382 48.2655Z" fill="#262626"/>
<path d="M135.794 34.317V47.3786C135.794 48.2129 136.002 48.4228 136.785 48.5269L137.778 48.6327V52.9154C136.653 53.0737 135.519 53.1609 134.383 53.1765C131.718 53.1765 130.412 52.4462 129.89 50.513C128.583 52.4974 126.186 53.5945 123.098 53.5945C118.187 53.5945 115.16 50.7212 115.16 45.8105V45.2813C115.16 40.5188 117.982 37.8095 123.098 36.8147L128.793 35.7158V34.0066C128.793 31.9164 128.008 30.9233 125.971 30.9233C124.299 30.9233 123.463 31.6024 122.733 32.8054C121.792 34.4246 120.903 35.4688 119.074 35.4688C117.245 35.4688 115.94 34.4246 115.94 32.4914C115.94 28.8349 120.589 26.4307 126.181 26.4307C132.346 26.4219 135.794 29.3534 135.794 34.317ZM125.292 48.4281C127.174 48.4281 128.532 47.435 128.793 45.9199V40.1678L126.384 40.5859C123.562 41.0568 122.15 42.311 122.15 44.6093V45.2355C122.15 47.4298 123.412 48.4228 125.292 48.4228V48.4281Z" fill="#262626"/>
<path d="M140.287 19.948L149.796 18.5898L150.004 18.7997V48.2567L151.99 48.5706V53.0633H140.913V48.5794L143.003 48.2655V24.5976L140.287 24.2325V19.948Z" fill="#262626"/>
<path d="M154.605 27.9423L162.076 26.8452L162.912 29.3535C164.268 27.5243 166.67 26.4219 169.599 26.4219C172.527 26.4219 174.823 27.4661 176.232 29.4522C177.592 27.512 179.995 26.4219 182.972 26.4219C187.832 26.4219 191.07 29.3993 191.07 34.5199V48.2606L192.952 48.5745V53.0672H182.193V48.5798L184.062 48.2659V35.1002C184.062 32.8071 182.914 31.8088 181.189 31.8088C179.623 31.8088 178.212 32.6449 177.689 34.056V48.2659L179.674 48.5798V53.0724H168.812V48.5798L170.694 48.2659V35.1002C170.694 32.8071 169.544 31.8088 167.821 31.8088C166.252 31.8088 164.841 32.6449 164.319 34.056V48.2659L166.305 48.5798V53.0724H155.228V48.5798L157.318 48.2659V32.5955L154.605 32.2268V27.9423Z" fill="#262626"/>
<path d="M216.306 34.317V47.3786C216.306 48.2129 216.514 48.4228 217.297 48.5269L218.29 48.6327V52.9154C217.165 53.0737 216.031 53.1609 214.895 53.1765C212.229 53.1765 210.924 52.4462 210.402 50.513C209.095 52.4974 206.698 53.5945 203.609 53.5945C198.699 53.5945 195.672 50.7212 195.672 45.8105V45.2813C195.672 40.5188 198.494 37.8095 203.609 36.8147L209.305 35.7158V34.0066C209.305 31.9164 208.52 30.9233 206.483 30.9233C204.811 30.9233 203.974 31.6024 203.244 32.8054C202.304 34.4246 201.415 35.4688 199.586 35.4688C197.757 35.4688 196.452 34.4246 196.452 32.4914C196.452 28.8349 201.101 26.4307 206.693 26.4307C212.857 26.4219 216.306 29.3534 216.306 34.317ZM205.804 48.4281C207.684 48.4281 209.042 47.435 209.305 45.9199V40.1678L206.901 40.5859C204.079 41.0568 202.667 42.311 202.667 44.6093V45.2355C202.669 47.4298 203.923 48.4228 205.804 48.4228V48.4281Z" fill="#262626"/>
<path d="M223.044 25.434L223.411 22.1885H229.055L229.525 26.951H233.758V31.9675H229.68V45.8651C229.68 47.5355 230.562 48.2675 232.292 48.3716L234.486 48.5286V53.0212C232.876 53.2367 231.254 53.3586 229.629 53.3863C224.822 53.3863 222.679 51.5572 222.679 46.3855V31.9128H219.34V27.3161L221.01 27.2103C222.471 27.1062 222.889 26.7411 223.044 25.434Z" fill="#262626"/>
<path d="M237.205 27.9946L246.714 26.6364L246.922 26.8445V48.2651L248.908 48.5791V53.0717H237.831V48.5791L239.921 48.2651V32.6442L237.205 32.279V27.9946ZM243.056 17.4395C245.511 17.4395 247.289 19.1645 247.289 21.4117C247.289 23.6589 245.513 25.4863 242.954 25.4863C240.498 25.4863 238.72 23.7612 238.72 21.5158C238.72 19.2704 240.496 17.4395 243.056 17.4395Z" fill="#262626"/>
<path d="M251.52 27.9419L258.99 26.8448L259.872 29.5612C261.283 27.5768 263.789 26.4268 266.872 26.4268C271.73 26.4268 275.127 29.249 275.127 34.7347V48.2654L277.112 48.5794V53.072H266.259V48.5794L268.141 48.2654V35.2568C268.141 32.7485 266.834 31.8084 265.057 31.8084C263.281 31.8084 261.766 32.7485 261.244 34.5248V48.2654L263.228 48.5794V53.072H252.147V48.5794L254.238 48.2654V32.5951L251.521 32.2299L251.52 27.9419Z" fill="#262626"/>
<path d="M286.212 47.3253C286.996 48.4224 287.832 49.1015 289.243 49.1015C290.809 49.1015 291.802 48.2654 291.802 46.8561C291.802 45.0781 290.234 44.0868 286.734 42.4146L285.219 41.6826C281.771 40.0105 279.473 37.7121 279.473 34.2108C279.473 29.8222 283.076 26.4268 289.555 26.4268C295.408 26.4268 298.856 29.1961 298.856 32.1224C298.856 33.8457 297.653 35.0469 295.826 35.0469C294.205 35.0469 293.16 34.1067 292.121 32.7538C291.336 31.7096 290.345 30.9776 288.934 30.9776C287.419 30.9776 286.53 31.8137 286.53 33.0678C286.53 34.844 288.306 35.6272 291.336 37.0895L292.957 37.8744C296.561 39.6506 298.912 41.792 298.912 45.6073C298.912 50.465 295.099 53.5994 288.881 53.5994C282.926 53.5994 279.217 50.7261 279.217 47.5387C279.217 45.7625 280.365 44.4572 282.247 44.4572C284.129 44.4572 285.166 45.8101 286.212 47.3253Z" fill="#262626"/>
<path d="M300.893 19.948L310.402 18.5898L310.61 18.7997V37.8691L318.195 31.6955L315.845 31.4345V26.9507H324.934V31.5491L317.254 37.9238L325.666 48.5283V53.0738H315.312V48.5794L317.403 48.2655L310.61 39.9593V48.2655L312.596 48.5794V53.0721H301.521V48.5794L303.609 48.2655V24.5976L300.893 24.2325V19.948Z" fill="#262626"/>
<path d="M328.271 27.9946L337.781 26.6364L337.989 26.8445V48.2651L339.975 48.5791V53.0717H328.899V48.5791L330.988 48.2651V32.6442L328.271 32.279V27.9946ZM334.124 17.4395C336.579 17.4395 338.357 19.1645 338.357 21.4117C338.357 23.6589 336.581 25.4863 334.02 25.4863C331.565 25.4863 329.787 23.7612 329.787 21.5158C329.787 19.2704 331.563 17.4395 334.124 17.4395Z" fill="#262626"/>
<circle cx="35.4395" cy="35.4395" r="17.7197" fill="#E44D42"/>
<path fill-rule="evenodd" clip-rule="evenodd" d="M70.8789 35.4395C70.8789 55.0121 55.0121 70.8789 35.4395 70.8789C15.8668 70.8789 0 55.0121 0 35.4395C0 15.8668 15.8668 0 35.4395 0C55.0121 0 70.8789 15.8668 70.8789 35.4395ZM35.4395 62.0191C50.119 62.0191 62.0191 50.119 62.0191 35.4395C62.0191 20.76 50.119 8.85987 35.4395 8.85987C20.76 8.85987 8.85987 20.76 8.85987 35.4395C8.85987 50.119 20.76 62.0191 35.4395 62.0191Z" fill="#E44D42"/>
</svg>
